# 3ds Max Wavefront OBJ Exporter v0.97b - (c)2007 guruware
# File Created: 28.06.2018 15:44:50

mtllib Cube.mtl

#
# object Box001
#

v  -50.0000 0.0000 50.0000
v  50.0000 0.0000 50.0000
v  -50.0000 0.0000 -50.0000
v  50.0000 0.0000 -50.0000
v  -50.0000 100.0000 50.0000
v  50.0000 100.0000 50.0000
v  -50.0000 100.0000 -50.0000
v  50.0000 100.0000 -50.0000
# 8 vertices

vn -0.5774 -0.5774 0.5774
vn -0.5774 -0.5774 -0.5774
vn 0.5774 -0.5774 -0.5774
vn 0.5774 -0.5774 0.5774
vn -0.5774 0.5774 0.5774
vn 0.5774 0.5774 0.5774
vn 0.5774 0.5774 -0.5774
vn -0.5774 0.5774 -0.5774
vn -0.5774 -0.5774 0.5774
vn 0.5774 -0.5774 0.5774
vn 0.5774 0.5774 0.5774
vn -0.5774 0.5774 0.5774
vn 0.5774 -0.5774 0.5774
vn 0.5774 -0.5774 -0.5774
vn 0.5774 0.5774 -0.5774
vn 0.5774 0.5774 0.5774
vn 0.5774 -0.5774 -0.5774
vn -0.5774 -0.5774 -0.5774
vn -0.5774 0.5774 -0.5774
vn 0.5774 0.5774 -0.5774
vn -0.5774 -0.5774 -0.5774
vn -0.5774 -0.5774 0.5774
vn -0.5774 0.5774 0.5774
vn -0.5774 0.5774 -0.5774
# 24 vertex normals

vt 0.3716 0.3464 0.0000
vt 0.6787 0.3464 0.0000
vt 0.3716 0.6536 0.0000
vt 0.6787 0.6536 0.0000
vt 0.0200 0.0200 0.0000
vt 0.3271 0.0200 0.0000
vt 0.0200 0.3271 0.0000
vt 0.3271 0.3271 0.0000
vt 0.3464 0.0200 0.0000
vt 0.6536 0.0200 0.0000
vt 0.3464 0.3271 0.0000
vt 0.6536 0.3271 0.0000
vt 0.6729 0.0200 0.0000
vt 0.9800 0.0200 0.0000
vt 0.6729 0.3271 0.0000
vt 0.9800 0.3271 0.0000
vt 0.0343 0.3464 0.0000
vt 0.3415 0.3464 0.0000
vt 0.0343 0.6536 0.0000
vt 0.3415 0.6536 0.0000
# 20 texture coords

o Box001
g Box001
usemtl Material__36
s 2
f 1/10/1 3/12/2 4/11/3 2/9/4 
usemtl wire_224086086
s 4
f 5/9/5 6/10/6 8/12/7 7/11/8 
usemtl Material__36
s 8
f 1/13/9 2/14/10 6/16/11 5/15/12 
s 16
f 2/17/13 4/18/14 8/20/15 6/19/16 
s 32
f 4/5/17 3/6/18 7/8/19 8/7/20 
s 64
f 3/1/21 1/2/22 5/4/23 7/3/24 
# 6 polygons

